<svg xmlns="http://www.w3.org/2000/svg" xmlns:xlink="http://www.w3.org/1999/xlink" version="1.1" class="marks" width="793" height="510" viewBox="0 0 793 510"><rect width="793" height="510" fill="white"/><g fill="none" stroke-miterlimit="10" transform="translate(73,45)"><g class="mark-group role-frame root" role="graphics-object" aria-roledescription="group mark container"><g transform="translate(0,0)"><path class="background" aria-hidden="true" d="M0.5,0.5h700v400h-700Z" fill="white" stroke="#1b4332"/><g><g class="mark-group role-axis" aria-hidden="true"><g transform="translate(0.5,400.5)"><path class="background" aria-hidden="true" d="M0,0h0v0h0Z" pointer-events="none"/><g><g class="mark-rule role-axis-grid" pointer-events="none"><line transform="translate(15,-400)" x2="0" y2="400" stroke="#b7d9c2" stroke-opacity="0.8" stroke-width="1" opacity="1"/><line transform="translate(44,-400)" x2="0" y2="400" stroke="#b7d9c2" stroke-opacity="0.8" stroke-width="1" opacity="1"/><line transform="translate(73,-400)" x2="0" y2="400" stroke="#b7d9c2" stroke-opacity="0.8" stroke-width="1" opacity="1"/><line transform="translate(102,-400)" x2="0" y2="400" stroke="#b7d9c2" stroke-opacity="0.8" stroke-width="1" opacity="1"/><line transform="translate(131,-400)" x2="0" y2="400" stroke="#b7d9c2" stroke-opacity="0.8" stroke-width="1" opacity="1"/><line transform="translate(160,-400)" x2="0" y2="400" stroke="#b7d9c2" stroke-opacity="0.8" stroke-width="1" opacity="1"/><line transform="translate(190,-400)" x2="0" y2="400" stroke="#b7d9c2" stroke-opacity="0.8" stroke-width="1" opacity="1"/><line transform="translate(219,-400)" x2="0" y2="400" stroke="#b7d9c2" stroke-opacity="0.8" stroke-width="1" opacity="1"/><line transform="translate(248,-400)" x2="0" y2="400" stroke="#b7d9c2" stroke-opacity="0.8" stroke-width="1" opacity="1"/><line transform="translate(277,-400)" x2="0" y2="400" stroke="#b7d9c2" stroke-opacity="0.8" stroke-width="1" opacity="1"/><line transform="translate(306,-400)" x2="0" y2="400" stroke="#b7d9c2" stroke-opacity="0.8" stroke-width="1" opacity="1"/><line transform="translate(335,-400)" x2="0" y2="400" stroke="#b7d9c2" stroke-opacity="0.8" stroke-width="1" opacity="1"/><line transform="translate(365,-400)" x2="0" y2="400" stroke="#b7d9c2" stroke-opacity="0.8" stroke-width="1" opacity="1"/><line transform="translate(394,-400)" x2="0" y2="400" stroke="#b7d9c2" stroke-opacity="0.8" stroke-width="1" opacity="1"/><line transform="translate(423,-400)" x2="0" y2="400" stroke="#b7d9c2" stroke-opacity="0.8" stroke-width="1" opacity="1"/><line transform="translate(452,-400)" x2="0" y2="400" stroke="#b7d9c2" stroke-opacity="0.8" stroke-width="1" opacity="1"/><line transform="translate(481,-400)" x2="0" y2="400" stroke="#b7d9c2" stroke-opacity="0.8" stroke-width="1" opacity="1"/><line transform="translate(510,-400)" x2="0" y2="400" stroke="#b7d9c2" stroke-opacity="0.8" stroke-width="1" opacity="1"/><line transform="translate(540,-400)" x2="0" y2="400" stroke="#b7d9c2" stroke-opacity="0.8" stroke-width="1" opacity="1"/><line transform="translate(569,-400)" x2="0" y2="400" stroke="#b7d9c2" stroke-opacity="0.8" stroke-width="1" opacity="1"/><line transform="translate(598,-400)" x2="0" y2="400" stroke="#b7d9c2" stroke-opacity="0.8" stroke-width="1" opacity="1"/><line transform="translate(627,-400)" x2="0" y2="400" stroke="#b7d9c2" stroke-opacity="0.8" stroke-width="1" opacity="1"/><line transform="translate(656,-400)" x2="0" y2="400" stroke="#b7d9c2" stroke-opacity="0.8" stroke-width="1" opacity="1"/><line transform="translate(685,-400)" x2="0" y2="400" stroke="#b7d9c2" stroke-opacity="0.8" stroke-width="1" opacity="1"/></g></g><path class="foreground" aria-hidden="true" d="" pointer-events="none" display="none"/></g></g><g class="mark-group role-axis" aria-hidden="true"><g transform="translate(0.5,0.5)"><path class="background" aria-hidden="true" d="M0,0h0v0h0Z" pointer-events="none"/><g><g class="mark-rule role-axis-grid" pointer-events="none"><line transform="translate(0,400)" x2="700" y2="0" stroke="#b7d9c2" stroke-opacity="0.8" stroke-width="1" opacity="1"/><line transform="translate(0,367)" x2="700" y2="0" stroke="#b7d9c2" stroke-opacity="0.8" stroke-width="1" opacity="1"/><line transform="translate(0,333)" x2="700" y2="0" stroke="#b7d9c2" stroke-opacity="0.8" stroke-width="1" opacity="1"/><line transform="translate(0,300)" x2="700" y2="0" stroke="#b7d9c2" stroke-opacity="0.8" stroke-width="1" opacity="1"/><line transform="translate(0,267)" x2="700" y2="0" stroke="#b7d9c2" stroke-opacity="0.8" stroke-width="1" opacity="1"/><line transform="translate(0,233)" x2="700" y2="0" stroke="#b7d9c2" stroke-opacity="0.8" stroke-width="1" opacity="1"/><line transform="translate(0,200)" x2="700" y2="0" stroke="#b7d9c2" stroke-opacity="0.8" stroke-width="1" opacity="1"/><line transform="translate(0,167)" x2="700" y2="0" stroke="#b7d9c2" stroke-opacity="0.8" stroke-width="1" opacity="1"/><line transform="translate(0,133)" x2="700" y2="0" stroke="#b7d9c2" stroke-opacity="0.8" stroke-width="1" opacity="1"/><line transform="translate(0,100)" x2="700" y2="0" stroke="#b7d9c2" stroke-opacity="0.8" stroke-width="1" opacity="1"/><line transform="translate(0,67)" x2="700" y2="0" stroke="#b7d9c2" stroke-opacity="0.8" stroke-width="1" opacity="1"/><line transform="translate(0,33)" x2="700" y2="0" stroke="#b7d9c2" stroke-opacity="0.8" stroke-width="1" opacity="1"/><line transform="translate(0,0)" x2="700" y2="0" stroke="#b7d9c2" stroke-opacity="0.8" stroke-width="1" opacity="1"/></g></g><path class="foreground" aria-hidden="true" d="" pointer-events="none" display="none"/></g></g><g class="mark-group role-axis" role="graphics-symbol" aria-roledescription="axis" aria-label="X-axis titled 'Year' for a discrete scale with 24 values: 2000, 2001, 2002, 2003, 2004, ending with 2023"><g transform="translate(0.5,400.5)"><path class="background" aria-hidden="true" d="M0,0h0v0h0Z" pointer-events="none"/><g><g class="mark-rule role-axis-tick" pointer-events="none"><line transform="translate(15,0)" x2="0" y2="5" stroke="#1b4332" stroke-width="1" opacity="1"/><line transform="translate(44,0)" x2="0" y2="5" stroke="#1b4332" stroke-width="1" opacity="1"/><line transform="translate(73,0)" x2="0" y2="5" stroke="#1b4332" stroke-width="1" opacity="1"/><line transform="translate(102,0)" x2="0" y2="5" stroke="#1b4332" stroke-width="1" opacity="1"/><line transform="translate(131,0)" x2="0" y2="5" stroke="#1b4332" stroke-width="1" opacity="1"/><line transform="translate(160,0)" x2="0" y2="5" stroke="#1b4332" stroke-width="1" opacity="1"/><line transform="translate(190,0)" x2="0" y2="5" stroke="#1b4332" stroke-width="1" opacity="1"/><line transform="translate(219,0)" x2="0" y2="5" stroke="#1b4332" stroke-width="1" opacity="1"/><line transform="translate(248,0)" x2="0" y2="5" stroke="#1b4332" stroke-width="1" opacity="1"/><line transform="translate(277,0)" x2="0" y2="5" stroke="#1b4332" stroke-width="1" opacity="1"/><line transform="translate(306,0)" x2="0" y2="5" stroke="#1b4332" stroke-width="1" opacity="1"/><line transform="translate(335,0)" x2="0" y2="5" stroke="#1b4332" stroke-width="1" opacity="1"/><line transform="translate(365,0)" x2="0" y2="5" stroke="#1b4332" stroke-width="1" opacity="1"/><line transform="translate(394,0)" x2="0" y2="5" stroke="#1b4332" stroke-width="1" opacity="1"/><line transform="translate(423,0)" x2="0" y2="5" stroke="#1b4332" stroke-width="1" opacity="1"/><line transform="translate(452,0)" x2="0" y2="5" stroke="#1b4332" stroke-width="1" opacity="1"/><line transform="translate(481,0)" x2="0" y2="5" stroke="#1b4332" stroke-width="1" opacity="1"/><line transform="translate(510,0)" x2="0" y2="5" stroke="#1b4332" stroke-width="1" opacity="1"/><line transform="translate(540,0)" x2="0" y2="5" stroke="#1b4332" stroke-width="1" opacity="1"/><line transform="translate(569,0)" x2="0" y2="5" stroke="#1b4332" stroke-width="1" opacity="1"/><line transform="translate(598,0)" x2="0" y2="5" stroke="#1b4332" stroke-width="1" opacity="1"/><line transform="translate(627,0)" x2="0" y2="5" stroke="#1b4332" stroke-width="1" opacity="1"/><line transform="translate(656,0)" x2="0" y2="5" stroke="#1b4332" stroke-width="1" opacity="1"/><line transform="translate(685,0)" x2="0" y2="5" stroke="#1b4332" stroke-width="1" opacity="1"/></g><g class="mark-text role-axis-label" pointer-events="none"><text text-anchor="end" transform="translate(14.583333333333314,7) rotate(270) translate(0,3)" font-family="sans-serif" font-size="10px" fill="#1b4332" opacity="1">2000</text><text text-anchor="end" transform="translate(43.749999999999986,7) rotate(270) translate(0,3)" font-family="sans-serif" font-size="10px" fill="#1b4332" opacity="1">2001</text><text text-anchor="end" transform="translate(72.91666666666666,7) rotate(270) translate(0,3)" font-family="sans-serif" font-size="10px" fill="#1b4332" opacity="1">2002</text><text text-anchor="end" transform="translate(102.08333333333331,7) rotate(270) translate(0,3)" font-family="sans-serif" font-size="10px" fill="#1b4332" opacity="1">2003</text><text text-anchor="end" transform="translate(131.25,7) rotate(270) translate(0,3)" font-family="sans-serif" font-size="10px" fill="#1b4332" opacity="1">2004</text><text text-anchor="end" transform="translate(160.41666666666666,7) rotate(270) translate(0,3)" font-family="sans-serif" font-size="10px" fill="#1b4332" opacity="1">2005</text><text text-anchor="end" transform="translate(189.58333333333331,7) rotate(270) translate(0,3)" font-family="sans-serif" font-size="10px" fill="#1b4332" opacity="1">2006</text><text text-anchor="end" transform="translate(218.75,7) rotate(270) translate(0,3)" font-family="sans-serif" font-size="10px" fill="#1b4332" opacity="1">2007</text><text text-anchor="end" transform="translate(247.91666666666666,7) rotate(270) translate(0,3)" font-family="sans-serif" font-size="10px" fill="#1b4332" opacity="1">2008</text><text text-anchor="end" transform="translate(277.0833333333333,7) rotate(270) translate(0,3)" font-family="sans-serif" font-size="10px" fill="#1b4332" opacity="1">2009</text><text text-anchor="end" transform="translate(306.25,7) rotate(270) translate(0,3)" font-family="sans-serif" font-size="10px" fill="#1b4332" opacity="1">2010</text><text text-anchor="end" transform="translate(335.4166666666667,7) rotate(270) translate(0,3)" font-family="sans-serif" font-size="10px" fill="#1b4332" opacity="1">2011</text><text text-anchor="end" transform="translate(364.5833333333333,7) rotate(270) translate(0,3)" font-family="sans-serif" font-size="10px" fill="#1b4332" opacity="1">2012</text><text text-anchor="end" transform="translate(393.75,7) rotate(270) translate(0,3)" font-family="sans-serif" font-size="10px" fill="#1b4332" opacity="1">2013</text><text text-anchor="end" transform="translate(422.9166666666667,7) rotate(270) translate(0,3)" font-family="sans-serif" font-size="10px" fill="#1b4332" opacity="1">2014</text><text text-anchor="end" transform="translate(452.0833333333333,7) rotate(270) translate(0,3)" font-family="sans-serif" font-size="10px" fill="#1b4332" opacity="1">2015</text><text text-anchor="end" transform="translate(481.25,7) rotate(270) translate(0,3)" font-family="sans-serif" font-size="10px" fill="#1b4332" opacity="1">2016</text><text text-anchor="end" transform="translate(510.4166666666667,7) rotate(270) translate(0,3)" font-family="sans-serif" font-size="10px" fill="#1b4332" opacity="1">2017</text><text text-anchor="end" transform="translate(539.5833333333333,7) rotate(270) translate(0,3)" font-family="sans-serif" font-size="10px" fill="#1b4332" opacity="1">2018</text><text text-anchor="end" transform="translate(568.75,7) rotate(270) translate(0,3)" font-family="sans-serif" font-size="10px" fill="#1b4332" opacity="1">2019</text><text text-anchor="end" transform="translate(597.9166666666667,7) rotate(270) translate(0,3)" font-family="sans-serif" font-size="10px" fill="#1b4332" opacity="1">2020</text><text text-anchor="end" transform="translate(627.0833333333333,7) rotate(270) translate(0,3)" font-family="sans-serif" font-size="10px" fill="#1b4332" opacity="1">2021</text><text text-anchor="end" transform="translate(656.25,7) rotate(270) translate(0,3)" font-family="sans-serif" font-size="10px" fill="#1b4332" opacity="1">2022</text><text text-anchor="end" transform="translate(685.4166666666667,7) rotate(270) translate(0,3)" font-family="sans-serif" font-size="10px" fill="#1b4332" opacity="1">2023</text></g><g class="mark-rule role-axis-domain" pointer-events="none"><line transform="translate(0,0)" x2="700" y2="0" stroke="#1b4332" stroke-width="1" opacity="1"/></g><g class="mark-text role-axis-title" pointer-events="none"><text text-anchor="middle" transform="translate(350,42.24609375000006)" font-family="sans-serif" font-size="11px" font-weight="bold" fill="#1b4332" opacity="1">Year</text></g></g><path class="foreground" aria-hidden="true" d="" pointer-events="none" display="none"/></g></g><g class="mark-group role-axis" role="graphics-symbol" aria-roledescription="axis" aria-label="Y-axis titled 'CO₂ Emissions' for a linear scale with values from 0 to 24,000"><g transform="translate(0.5,0.5)"><path class="background" aria-hidden="true" d="M0,0h0v0h0Z" pointer-events="none"/><g><g class="mark-rule role-axis-tick" pointer-events="none"><line transform="translate(0,400)" x2="-5" y2="0" stroke="#1b4332" stroke-width="1" opacity="1"/><line transform="translate(0,367)" x2="-5" y2="0" stroke="#1b4332" stroke-width="1" opacity="1"/><line transform="translate(0,333)" x2="-5" y2="0" stroke="#1b4332" stroke-width="1" opacity="1"/><line transform="translate(0,300)" x2="-5" y2="0" stroke="#1b4332" stroke-width="1" opacity="1"/><line transform="translate(0,267)" x2="-5" y2="0" stroke="#1b4332" stroke-width="1" opacity="1"/><line transform="translate(0,233)" x2="-5" y2="0" stroke="#1b4332" stroke-width="1" opacity="1"/><line transform="translate(0,200)" x2="-5" y2="0" stroke="#1b4332" stroke-width="1" opacity="1"/><line transform="translate(0,167)" x2="-5" y2="0" stroke="#1b4332" stroke-width="1" opacity="1"/><line transform="translate(0,133)" x2="-5" y2="0" stroke="#1b4332" stroke-width="1" opacity="1"/><line transform="translate(0,100)" x2="-5" y2="0" stroke="#1b4332" stroke-width="1" opacity="1"/><line transform="translate(0,67)" x2="-5" y2="0" stroke="#1b4332" stroke-width="1" opacity="1"/><line transform="translate(0,33)" x2="-5" y2="0" stroke="#1b4332" stroke-width="1" opacity="1"/><line transform="translate(0,0)" x2="-5" y2="0" stroke="#1b4332" stroke-width="1" opacity="1"/></g><g class="mark-text role-axis-label" pointer-events="none"><text text-anchor="end" transform="translate(-7,403)" font-family="sans-serif" font-size="10px" fill="#1b4332" opacity="1">0</text><text text-anchor="end" transform="translate(-7,369.66666666666663)" font-family="sans-serif" font-size="10px" fill="#1b4332" opacity="1">2,000</text><text text-anchor="end" transform="translate(-7,336.33333333333337)" font-family="sans-serif" font-size="10px" fill="#1b4332" opacity="1">4,000</text><text text-anchor="end" transform="translate(-7,303)" font-family="sans-serif" font-size="10px" fill="#1b4332" opacity="1">6,000</text><text text-anchor="end" transform="translate(-7,269.6666666666667)" font-family="sans-serif" font-size="10px" fill="#1b4332" opacity="1">8,000</text><text text-anchor="end" transform="translate(-7,236.33333333333331)" font-family="sans-serif" font-size="10px" fill="#1b4332" opacity="1">10,000</text><text text-anchor="end" transform="translate(-7,203)" font-family="sans-serif" font-size="10px" fill="#1b4332" opacity="1">12,000</text><text text-anchor="end" transform="translate(-7,169.66666666666666)" font-family="sans-serif" font-size="10px" fill="#1b4332" opacity="1">14,000</text><text text-anchor="end" transform="translate(-7,136.33333333333334)" font-family="sans-serif" font-size="10px" fill="#1b4332" opacity="1">16,000</text><text text-anchor="end" transform="translate(-7,103)" font-family="sans-serif" font-size="10px" fill="#1b4332" opacity="1">18,000</text><text text-anchor="end" transform="translate(-7,69.66666666666666)" font-family="sans-serif" font-size="10px" fill="#1b4332" opacity="1">20,000</text><text text-anchor="end" transform="translate(-7,36.33333333333335)" font-family="sans-serif" font-size="10px" fill="#1b4332" opacity="1">22,000</text><text text-anchor="end" transform="translate(-7,3)" font-family="sans-serif" font-size="10px" fill="#1b4332" opacity="1">24,000</text></g><g class="mark-rule role-axis-domain" pointer-events="none"><line transform="translate(0,400)" x2="0" y2="-400" stroke="#1b4332" stroke-width="1" opacity="1"/></g><g class="mark-text role-axis-title" pointer-events="none"><text text-anchor="middle" transform="translate(-41.5859375,200) rotate(-90) translate(0,-2)" font-family="sans-serif" font-size="11px" font-weight="bold" fill="#1b4332" opacity="1">CO₂ Emissions</text></g></g><path class="foreground" aria-hidden="true" d="" pointer-events="none" display="none"/></g></g><g class="mark-line role-mark view_12_marks" role="graphics-object" aria-roledescription="line mark container"><path aria-label="Year: 2000; CO₂ Emissions: 2677.15686275; State: National Average; CO2_Emissions: 2677.16" role="graphics-symbol" aria-roledescription="line mark" d="M14.583,355.381L43.75,353.026L72.917,344.055L102.083,323.738L131.25,304.142L160.417,290.475L189.583,252.084L218.75,214.184L247.917,138.685L277.083,102.728L306.25,53.196L335.417,52.081L364.583,52.339L393.75,43.194L422.917,36.834L452.083,23.184L481.25,12.13L510.417,8.129L539.583,8.944L568.75,5.792L597.917,57.012L627.083,22.565L656.25,20.039L685.417,14.717" stroke="#1b4332" stroke-width="2.5"/></g><g class="mark-symbol role-mark layer_0_layer_1_marks" role="graphics-object" aria-roledescription="symbol mark container"><path aria-label="Year: 2000; CO₂ Emissions: 2677.15686275; State: National Average; CO2_Emissions: 2677.16" role="graphics-symbol" aria-roledescription="point" transform="translate(14.583333333333314,355.3807189542484)" d="M3.873,0A3.873,3.873,0,1,1,-3.873,0A3.873,3.873,0,1,1,3.873,0" fill="#1b4332" stroke-width="2" opacity="1"/><path aria-label="Year: 2001; CO₂ Emissions: 2818.41176471; State: National Average; CO2_Emissions: 2818.41" role="graphics-symbol" aria-roledescription="point" transform="translate(43.749999999999986,353.02647058823527)" d="M3.873,0A3.873,3.873,0,1,1,-3.873,0A3.873,3.873,0,1,1,3.873,0" fill="#1b4332" stroke-width="2" opacity="1"/><path aria-label="Year: 2002; CO₂ Emissions: 3356.7254902; State: National Average; CO2_Emissions: 3356.73" role="graphics-symbol" aria-roledescription="point" transform="translate(72.91666666666666,344.05457516339874)" d="M3.873,0A3.873,3.873,0,1,1,-3.873,0A3.873,3.873,0,1,1,3.873,0" fill="#1b4332" stroke-width="2" opacity="1"/><path aria-label="Year: 2003; CO₂ Emissions: 4575.74509804; State: National Average; CO2_Emissions: 4575.75" role="graphics-symbol" aria-roledescription="point" transform="translate(102.08333333333331,323.73758169934644)" d="M3.873,0A3.873,3.873,0,1,1,-3.873,0A3.873,3.873,0,1,1,3.873,0" fill="#1b4332" stroke-width="2" opacity="1"/><path aria-label="Year: 2004; CO₂ Emissions: 5751.49019608; State: National Average; CO2_Emissions: 5751.49" role="graphics-symbol" aria-roledescription="point" transform="translate(131.25,304.14183006535944)" d="M3.873,0A3.873,3.873,0,1,1,-3.873,0A3.873,3.873,0,1,1,3.873,0" fill="#1b4332" stroke-width="2" opacity="1"/><path aria-label="Year: 2005; CO₂ Emissions: 6571.49019608; State: National Average; CO2_Emissions: 6571.49" role="graphics-symbol" aria-roledescription="point" transform="translate(160.41666666666666,290.4751633986928)" d="M3.873,0A3.873,3.873,0,1,1,-3.873,0A3.873,3.873,0,1,1,3.873,0" fill="#1b4332" stroke-width="2" opacity="1"/><path aria-label="Year: 2006; CO₂ Emissions: 8874.94117647; State: National Average; CO2_Emissions: 8874.94" role="graphics-symbol" aria-roledescription="point" transform="translate(189.58333333333331,252.08431372549018)" d="M3.873,0A3.873,3.873,0,1,1,-3.873,0A3.873,3.873,0,1,1,3.873,0" fill="#1b4332" stroke-width="2" opacity="1"/><path aria-label="Year: 2007; CO₂ Emissions: 11148.9411765; State: National Average; CO2_Emissions: 11148.94" role="graphics-symbol" aria-roledescription="point" transform="translate(218.75,214.18431372549023)" d="M3.873,0A3.873,3.873,0,1,1,-3.873,0A3.873,3.873,0,1,1,3.873,0" fill="#1b4332" stroke-width="2" opacity="1"/><path aria-label="Year: 2008; CO₂ Emissions: 15678.9019608; State: National Average; CO2_Emissions: 15678.90" role="graphics-symbol" aria-roledescription="point" transform="translate(247.91666666666666,138.68496732026142)" d="M3.873,0A3.873,3.873,0,1,1,-3.873,0A3.873,3.873,0,1,1,3.873,0" fill="#1b4332" stroke-width="2" opacity="1"/><path aria-label="Year: 2009; CO₂ Emissions: 17836.2941176; State: National Average; CO2_Emissions: 17836.29" role="graphics-symbol" aria-roledescription="point" transform="translate(277.0833333333333,102.72843137254898)" d="M3.873,0A3.873,3.873,0,1,1,-3.873,0A3.873,3.873,0,1,1,3.873,0" fill="#1b4332" stroke-width="2" opacity="1"/><path aria-label="Year: 2010; CO₂ Emissions: 20808.2156863; State: National Average; CO2_Emissions: 20808.22" role="graphics-symbol" aria-roledescription="point" transform="translate(306.25,53.19640522875817)" d="M3.873,0A3.873,3.873,0,1,1,-3.873,0A3.873,3.873,0,1,1,3.873,0" fill="#1b4332" stroke-width="2" opacity="1"/><path aria-label="Year: 2011; CO₂ Emissions: 20875.1568627; State: National Average; CO2_Emissions: 20875.16" role="graphics-symbol" aria-roledescription="point" transform="translate(335.4166666666667,52.080718954248354)" d="M3.873,0A3.873,3.873,0,1,1,-3.873,0A3.873,3.873,0,1,1,3.873,0" fill="#1b4332" stroke-width="2" opacity="1"/><path aria-label="Year: 2012; CO₂ Emissions: 20859.6862745; State: National Average; CO2_Emissions: 20859.69" role="graphics-symbol" aria-roledescription="point" transform="translate(364.5833333333333,52.33856209150325)" d="M3.873,0A3.873,3.873,0,1,1,-3.873,0A3.873,3.873,0,1,1,3.873,0" fill="#1b4332" stroke-width="2" opacity="1"/><path aria-label="Year: 2013; CO₂ Emissions: 21408.372549; State: National Average; CO2_Emissions: 21408.37" role="graphics-symbol" aria-roledescription="point" transform="translate(393.75,43.193790849673206)" d="M3.873,0A3.873,3.873,0,1,1,-3.873,0A3.873,3.873,0,1,1,3.873,0" fill="#1b4332" stroke-width="2" opacity="1"/><path aria-label="Year: 2014; CO₂ Emissions: 21789.9607843; State: National Average; CO2_Emissions: 21789.96" role="graphics-symbol" aria-roledescription="point" transform="translate(422.9166666666667,36.8339869281046)" d="M3.873,0A3.873,3.873,0,1,1,-3.873,0A3.873,3.873,0,1,1,3.873,0" fill="#1b4332" stroke-width="2" opacity="1"/><path aria-label="Year: 2015; CO₂ Emissions: 22608.9803922; State: National Average; CO2_Emissions: 22608.98" role="graphics-symbol" aria-roledescription="point" transform="translate(452.0833333333333,23.18366013071893)" d="M3.873,0A3.873,3.873,0,1,1,-3.873,0A3.873,3.873,0,1,1,3.873,0" fill="#1b4332" stroke-width="2" opacity="1"/><path aria-label="Year: 2016; CO₂ Emissions: 23272.2156863; State: National Average; CO2_Emissions: 23272.22" role="graphics-symbol" aria-roledescription="point" transform="translate(481.25,12.129738562091497)" d="M3.873,0A3.873,3.873,0,1,1,-3.873,0A3.873,3.873,0,1,1,3.873,0" fill="#1b4332" stroke-width="2" opacity="1"/><path aria-label="Year: 2017; CO₂ Emissions: 23512.254902; State: National Average; CO2_Emissions: 23512.25" role="graphics-symbol" aria-roledescription="point" transform="translate(510.4166666666667,8.1290849673203)" d="M3.873,0A3.873,3.873,0,1,1,-3.873,0A3.873,3.873,0,1,1,3.873,0" fill="#1b4332" stroke-width="2" opacity="1"/><path aria-label="Year: 2018; CO₂ Emissions: 23463.372549; State: National Average; CO2_Emissions: 23463.37" role="graphics-symbol" aria-roledescription="point" transform="translate(539.5833333333333,8.943790849673183)" d="M3.873,0A3.873,3.873,0,1,1,-3.873,0A3.873,3.873,0,1,1,3.873,0" fill="#1b4332" stroke-width="2" opacity="1"/><path aria-label="Year: 2019; CO₂ Emissions: 23652.5098039; State: National Average; CO2_Emissions: 23652.51" role="graphics-symbol" aria-roledescription="point" transform="translate(568.75,5.791503267973841)" d="M3.873,0A3.873,3.873,0,1,1,-3.873,0A3.873,3.873,0,1,1,3.873,0" fill="#1b4332" stroke-width="2" opacity="1"/><path aria-label="Year: 2020; CO₂ Emissions: 20579.2745098; State: National Average; CO2_Emissions: 20579.27" role="graphics-symbol" aria-roledescription="point" transform="translate(597.9166666666667,57.01209150326796)" d="M3.873,0A3.873,3.873,0,1,1,-3.873,0A3.873,3.873,0,1,1,3.873,0" fill="#1b4332" stroke-width="2" opacity="1"/><path aria-label="Year: 2021; CO₂ Emissions: 22646.1176471; State: National Average; CO2_Emissions: 22646.12" role="graphics-symbol" aria-roledescription="point" transform="translate(627.0833333333333,22.56470588235291)" d="M3.873,0A3.873,3.873,0,1,1,-3.873,0A3.873,3.873,0,1,1,3.873,0" fill="#1b4332" stroke-width="2" opacity="1"/><path aria-label="Year: 2022; CO₂ Emissions: 22797.6666667; State: National Average; CO2_Emissions: 22797.67" role="graphics-symbol" aria-roledescription="point" transform="translate(656.25,20.03888888888885)" d="M3.873,0A3.873,3.873,0,1,1,-3.873,0A3.873,3.873,0,1,1,3.873,0" fill="#1b4332" stroke-width="2" opacity="1"/><path aria-label="Year: 2023; CO₂ Emissions: 23117; State: National Average; CO2_Emissions: 23117.00" role="graphics-symbol" aria-roledescription="point" transform="translate(685.4166666666667,14.716666666666667)" d="M3.873,0A3.873,3.873,0,1,1,-3.873,0A3.873,3.873,0,1,1,3.873,0" fill="#1b4332" stroke-width="2" opacity="1"/></g><g class="mark-symbol role-mark layer_1_marks" role="graphics-symbol" aria-roledescription="symbol mark container"/><g class="mark-group role-title"><g transform="translate(350,-25)"><path class="background" aria-hidden="true" d="M0,0h0v0h0Z" pointer-events="none"/><g><g class="mark-text role-title-text" role="graphics-symbol" aria-roledescription="title" aria-label="Title text 'CO₂ Emissions by State (2000–present)'" pointer-events="none"><text text-anchor="middle" transform="translate(0,13)" font-family="sans-serif" font-size="16px" font-weight="bold" fill="#1b4332" opacity="1">CO₂ Emissions by State (2000–present)</text></g></g><path class="foreground" aria-hidden="true" d="" pointer-events="none" display="none"/></g></g></g><path class="foreground" aria-hidden="true" d="" display="none"/></g></g></g></svg>